name C:/MyDriveSym/Projects/mobilecap/Data\Session20210825_0002\mocap\ForceDataProcessed\walking1_forces.mot
datacolumns 19
datarows 24
range 0.65950000 0.67100000
endheader 
time	R_ground_force_vx	R_ground_force_vy	R_ground_force_vz	R_ground_force_px	R_ground_force_py	R_ground_force_pz	R_ground_torque_x	R_ground_torque_y	R_ground_torque_z	L_ground_force_vx	L_ground_force_vy	L_ground_force_vz	L_ground_force_px	L_ground_force_py	L_ground_force_pz	L_ground_torque_x	L_ground_torque_y	L_ground_torque_z	
          0.65950000	         77.93629800	        344.74905000	         -5.92182700	          0.32146300	          0.00600000	         -0.14309600	          0.00000000	         -1.63051500	          0.00000000	        -89.32890300	        484.13307100	          1.32209500	          0.82554000	          0.00600000	         -0.23073500	          0.00000000	         -0.36391700	          0.00000000	
          0.66000000	         77.53083000	        342.20668100	         -5.81687600	          0.32162800	          0.00600000	         -0.14311700	          0.00000000	         -1.62050600	          0.00000000	        -89.80281900	        486.51565200	          1.42296800	          0.82571100	          0.00600000	         -0.23076200	          0.00000000	         -0.37211800	          0.00000000	
          0.66050000	         77.12249900	        339.66468200	         -5.71303300	          0.32179200	          0.00600000	         -0.14313800	          0.00000000	         -1.61049100	          0.00000000	        -90.27304400	        488.88786000	          1.52466900	          0.82588100	          0.00600000	         -0.23079000	          0.00000000	         -0.38034500	          0.00000000	
          0.66100000	         76.71135600	        337.12324300	         -5.61030200	          0.32195800	          0.00600000	         -0.14315900	          0.00000000	         -1.60047100	          0.00000000	        -90.73951900	        491.24953500	          1.62719100	          0.82605000	          0.00600000	         -0.23081700	          0.00000000	         -0.38859600	          0.00000000	
          0.66150000	         76.29745200	        334.58255300	         -5.50868500	          0.32212400	          0.00600000	         -0.14318000	          0.00000000	         -1.59044600	          0.00000000	        -91.20218500	        493.60051700	          1.73052300	          0.82621900	          0.00600000	         -0.23084400	          0.00000000	         -0.39687000	          0.00000000	
          0.66200000	         75.88083600	        332.04280000	         -5.40818300	          0.32229100	          0.00600000	         -0.14320100	          0.00000000	         -1.58041600	          0.00000000	        -91.66098500	        495.94065100	          1.83465900	          0.82638600	          0.00600000	         -0.23087100	          0.00000000	         -0.40516600	          0.00000000	
          0.66250000	         75.46156200	        329.50417200	         -5.30879700	          0.32245800	          0.00600000	         -0.14322200	          0.00000000	         -1.57038100	          0.00000000	        -92.11586300	        498.26978400	          1.93958800	          0.82655300	          0.00600000	         -0.23089800	          0.00000000	         -0.41348400	          0.00000000	
          0.66300000	         75.03968200	        326.96685800	         -5.21052900	          0.32262600	          0.00600000	         -0.14324300	          0.00000000	         -1.56034300	          0.00000000	        -92.56676200	        500.58776300	          2.04530200	          0.82672000	          0.00600000	         -0.23092400	          0.00000000	         -0.42182200	          0.00000000	
          0.66350000	         74.61524800	        324.43104300	         -5.11337900	          0.32279500	          0.00600000	         -0.14326300	          0.00000000	         -1.55030000	          0.00000000	        -93.01362800	        502.89444000	          2.15179300	          0.82688500	          0.00600000	         -0.23095100	          0.00000000	         -0.43017900	          0.00000000	
          0.66400000	         74.18831500	        321.89691500	         -5.01734700	          0.32296400	          0.00600000	         -0.14328400	          0.00000000	         -1.54025400	          0.00000000	        -93.45640900	        505.18966800	          2.25905200	          0.82705000	          0.00600000	         -0.23097800	          0.00000000	         -0.43855400	          0.00000000	
          0.66450000	         73.75893500	        319.36465900	         -4.92243400	          0.32313500	          0.00600000	         -0.14330500	          0.00000000	         -1.53020500	          0.00000000	        -93.89505200	        507.47330100	          2.36707000	          0.82721500	          0.00600000	         -0.23100500	          0.00000000	         -0.44694600	          0.00000000	
          0.66500000	         73.32716300	        316.83446100	         -4.82863900	          0.32330500	          0.00600000	         -0.14332500	          0.00000000	         -1.52015400	          0.00000000	        -94.32950500	        509.74519900	          2.47583700	          0.82737800	          0.00600000	         -0.23103100	          0.00000000	         -0.45535400	          0.00000000	
          0.66550000	         72.89305300	        314.30650500	         -4.73596100	          0.32347700	          0.00600000	         -0.14334600	          0.00000000	         -1.51010000	          0.00000000	        -94.75972000	        512.00522100	          2.58534500	          0.82754100	          0.00600000	         -0.23105800	          0.00000000	         -0.46377600	          0.00000000	
          0.66600000	         72.45666200	        311.78097500	         -4.64440000	          0.32364900	          0.00600000	         -0.14336600	          0.00000000	         -1.50004400	          0.00000000	        -95.18564600	        514.25322900	          2.69558500	          0.82770300	          0.00600000	         -0.23108500	          0.00000000	         -0.47221200	          0.00000000	
          0.66650000	         72.01804400	        309.25805500	         -4.55395400	          0.32382300	          0.00600000	         -0.14338600	          0.00000000	         -1.48998600	          0.00000000	        -95.60723600	        516.48908800	          2.80654800	          0.82786500	          0.00600000	         -0.23111100	          0.00000000	         -0.48066000	          0.00000000	
          0.66700000	         71.57725600	        306.73792800	         -4.46462200	          0.32399600	          0.00600000	         -0.14340600	          0.00000000	         -1.47992800	          0.00000000	        -96.02444400	        518.71266500	          2.91822400	          0.82802600	          0.00600000	         -0.23113700	          0.00000000	         -0.48912000	          0.00000000	
          0.66750000	         71.13435200	        304.22077400	         -4.37640100	          0.32417100	          0.00600000	         -0.14342600	          0.00000000	         -1.46986900	          0.00000000	        -96.43722400	        520.92382900	          3.03060400	          0.82818600	          0.00600000	         -0.23116400	          0.00000000	         -0.49759000	          0.00000000	
          0.66800000	         70.68939200	        301.70677500	         -4.28929000	          0.32434600	          0.00600000	         -0.14344600	          0.00000000	         -1.45981000	          0.00000000	        -96.84553200	        523.12245100	          3.14367900	          0.82834500	          0.00600000	         -0.23119000	          0.00000000	         -0.50606800	          0.00000000	
          0.66850000	         70.24243000	        299.19611100	         -4.20328600	          0.32452300	          0.00600000	         -0.14346600	          0.00000000	         -1.44975100	          0.00000000	        -97.24932400	        525.30840400	          3.25743900	          0.82850400	          0.00600000	         -0.23121700	          0.00000000	         -0.51455400	          0.00000000	
          0.66900000	         69.79352400	        296.68896200	         -4.11838600	          0.32470000	          0.00600000	         -0.14348600	          0.00000000	         -1.43969400	          0.00000000	        -97.64855800	        527.48156600	          3.37187400	          0.82866200	          0.00600000	         -0.23124300	          0.00000000	         -0.52304700	          0.00000000	
          0.66950000	         69.34273200	        294.18550500	         -4.03458700	          0.32487700	          0.00600000	         -0.14350600	          0.00000000	         -1.42963700	          0.00000000	        -98.04319400	        529.64181200	          3.48697400	          0.82881900	          0.00600000	         -0.23126900	          0.00000000	         -0.53154400	          0.00000000	
          0.67000000	         68.89011100	        291.68591800	         -3.95188600	          0.32505600	          0.00600000	         -0.14352600	          0.00000000	         -1.41958300	          0.00000000	        -98.43319200	        531.78902400	          3.60272900	          0.82897600	          0.00600000	         -0.23129600	          0.00000000	         -0.54004600	          0.00000000	
          0.67050000	         68.43572100	        289.19037800	         -3.87027900	          0.32523600	          0.00600000	         -0.14354500	          0.00000000	         -1.40953100	          0.00000000	        -98.81851300	        533.92308400	          3.71912900	          0.82913200	          0.00600000	         -0.23132200	          0.00000000	         -0.54855100	          0.00000000	
          0.67100000	         67.97961800	        286.69906000	         -3.78976100	          0.32541600	          0.00600000	         -0.14356500	          0.00000000	         -1.39948200	          0.00000000	        -99.19911800	        536.04387600	          3.83616300	          0.82928700	          0.00600000	         -0.23134800	          0.00000000	         -0.55705700	          0.00000000	
